<svg xmlns="http://www.w3.org/2000/svg" version="1.1" xmlns:xlink="http://www.w3.org/1999/xlink" xmlns:svgjs="http://svgjs.dev/svgjs" width="1000" height="1000" viewBox="0 0 1000 1000"><rect width="1000" height="1000" fill="#50a060"></rect><g transform="matrix(0.7,0,0,0.7,149.57575846133443,433.0796836614485)"><svg viewBox="0 0 396 76" data-background-color="#50a060" preserveAspectRatio="xMidYMid meet" height="191" width="1000" xmlns="http://www.w3.org/2000/svg" xmlns:xlink="http://www.w3.org/1999/xlink"><g id="tight-bounds" transform="matrix(1,0,0,1,0.24000050098351267,0.039970394389769126)"><svg viewBox="0 0 395.52 75.92005921122045" height="75.92005921122045" width="395.52"><g><svg viewBox="0 0 494.5819845945391 94.93500595474396" height="75.92005921122045" width="395.52"><g transform="matrix(1,0,0,1,99.0619845945391,13.120539896784443)"><svg viewBox="0 0 395.52 68.69392616117507" height="68.69392616117507" width="395.52"><g id="textblocktransform"><svg viewBox="0 0 395.52 68.69392616117507" height="68.69392616117507" width="395.52" id="textblock"><g><svg viewBox="0 0 395.52 68.69392616117507" height="68.69392616117507" width="395.52"><g transform="matrix(1,0,0,1,0,0)"><svg width="395.52" viewBox="1.9000000953674316 -43.349998474121094 251.87001037597656 43.75" height="68.69392616117507" data-palette-color="#454545"><g class="wordmark-text-0" data-fill-palette-color="primary" id="text-0"><path d="M1.9 0L1.9-42.95 15.1-42.95Q18.25-42.95 19.98-41.53 21.7-40.1 22.3-37.52 22.9-34.95 22.9-30.95L22.9-30.95Q22.9-27.3 21.95-25.25 21-23.2 18.65-22.4L18.65-22.4Q20.6-22 21.48-20.45 22.35-18.9 22.35-16.25L22.35-16.25 22.25 0 13.85 0 13.85-16.8Q13.85-18.6 13.15-19.1 12.45-19.6 10.6-19.6L10.6-19.6 10.6 0 1.9 0ZM10.65-27.05L12.7-27.05Q14.5-27.05 14.5-30.95L14.5-30.95Q14.5-32.65 14.35-33.5 14.2-34.35 13.8-34.68 13.4-35 12.65-35L12.65-35 10.65-35 10.65-27.05ZM43.5 0L25.75 0 25.75-42.95 42.95-42.95 42.95-34.65 34.5-34.65 34.5-26.3 42.6-26.3 42.6-18.2 34.5-18.2 34.5-8.35 43.5-8.35 43.5 0ZM56.35 0.4Q51.65 0.4 48.82-2.55 46-5.5 46-10.65L46-10.65 46-30.45Q46-36.85 48.55-40.1 51.1-43.35 56.55-43.35L56.55-43.35Q61.3-43.35 64.2-40.75 67.1-38.15 67.1-33.25L67.1-33.25 67.1-25.85 58.55-25.85 58.55-32.2Q58.55-34.05 58.1-34.75 57.65-35.45 56.55-35.45L56.55-35.45Q55.4-35.45 54.97-34.65 54.55-33.85 54.55-32.3L54.55-32.3 54.55-10.75Q54.55-9.05 55.05-8.28 55.55-7.5 56.55-7.5L56.55-7.5Q58.55-7.5 58.55-10.75L58.55-10.75 58.55-18.5 67.2-18.5 67.2-10.4Q67.2 0.4 56.35 0.4L56.35 0.4ZM80.29 0.4Q75.09 0.4 72.39-2.78 69.69-5.95 69.69-11.7L69.69-11.7 69.69-32.15Q69.69-37.7 72.39-40.53 75.09-43.35 80.29-43.35L80.29-43.35Q85.49-43.35 88.19-40.53 90.89-37.7 90.89-32.15L90.89-32.15 90.89-11.7Q90.89-5.9 88.19-2.75 85.49 0.4 80.29 0.4L80.29 0.4ZM80.29-7.5Q81.44-7.5 81.84-8.5 82.24-9.5 82.24-11.3L82.24-11.3 82.24-32.3Q82.24-33.7 81.87-34.58 81.49-35.45 80.34-35.45L80.34-35.45Q78.19-35.45 78.19-32.2L78.19-32.2 78.19-11.25Q78.19-9.4 78.64-8.45 79.09-7.5 80.29-7.5L80.29-7.5ZM102.74 0L94.34 0 94.34-42.95 103.19-42.95 107.14-22.4 107.14-42.95 115.44-42.95 115.44 0 107.04 0 102.74-21.5 102.74 0ZM129.44 0.4Q123.59 0.4 120.99-2.5 118.39-5.4 118.39-11.85L118.39-11.85 118.39-16.05 126.84-16.05 126.84-10.7Q126.84-7.5 128.89-7.5L128.89-7.5Q130.04-7.5 130.49-8.18 130.94-8.85 130.94-10.45L130.94-10.45Q130.94-12.55 130.44-13.93 129.94-15.3 129.16-16.23 128.39-17.15 126.39-19.1L126.39-19.1 122.69-22.8Q118.39-27 118.39-32.1L118.39-32.1Q118.39-37.6 120.91-40.48 123.44-43.35 128.29-43.35L128.29-43.35Q134.09-43.35 136.64-40.28 139.19-37.2 139.19-30.65L139.19-30.65 130.44-30.65 130.39-33.6Q130.39-34.45 129.91-34.95 129.44-35.45 128.59-35.45L128.59-35.45Q127.59-35.45 127.09-34.9 126.59-34.35 126.59-33.4L126.59-33.4Q126.59-31.3 128.99-29.05L128.99-29.05 133.99-24.25Q135.74-22.55 136.89-21.03 138.04-19.5 138.74-17.43 139.44-15.35 139.44-12.5L139.44-12.5Q139.44-6.15 137.11-2.88 134.79 0.4 129.44 0.4L129.44 0.4ZM154.59 0L145.99 0 145.99-34.7 140.89-34.7 140.89-42.95 159.69-42.95 159.69-34.7 154.59-34.7 154.59 0ZM162.08 0L162.08-42.95 175.28-42.95Q178.43-42.95 180.16-41.53 181.88-40.1 182.48-37.52 183.08-34.95 183.08-30.95L183.08-30.95Q183.08-27.3 182.13-25.25 181.18-23.2 178.83-22.4L178.83-22.4Q180.78-22 181.66-20.45 182.53-18.9 182.53-16.25L182.53-16.25 182.43 0 174.03 0 174.03-16.8Q174.03-18.6 173.33-19.1 172.63-19.6 170.78-19.6L170.78-19.6 170.78 0 162.08 0ZM170.83-27.05L172.88-27.05Q174.68-27.05 174.68-30.95L174.68-30.95Q174.68-32.65 174.53-33.5 174.38-34.35 173.98-34.68 173.58-35 172.83-35L172.83-35 170.83-35 170.83-27.05ZM193.13 0L184.78 0 188.93-42.95 203.48-42.95 207.58 0 199.43 0 198.83-6.95 193.63-6.95 193.13 0ZM195.88-35.65L194.28-13.8 198.18-13.8 196.28-35.65 195.88-35.65ZM218.38 0L209.63 0 209.63-7.3 218.38-7.3 218.38 0ZM228.83 0L220.48 0 224.63-42.95 239.18-42.95 243.28 0 235.13 0 234.53-6.95 229.33-6.95 228.83 0ZM231.58-35.65L229.98-13.8 233.88-13.8 231.98-35.65 231.58-35.65ZM253.77 0L245.47 0 245.47-42.95 253.77-42.95 253.77 0Z" fill="#454545" data-fill-palette-color="primary"></path></g></svg></g></svg></g></svg></g></svg></g><g><svg viewBox="0 0 82.84499728211354 94.93500595474396" height="94.93500595474396" width="82.84499728211354"><g><svg xmlns:inkscape="http://www.inkscape.org/namespaces/inkscape" xmlns:sodipodi="http://sodipodi.sourceforge.net/DTD/sodipodi-0.dtd" xmlns:cc="http://creativecommons.org/ns#" xmlns:svg="http://www.w3.org/2000/svg" xmlns:rdf="http://www.w3.org/1999/02/22-rdf-syntax-ns#" xmlns:dc="http://purl.org/dc/elements/1.1/" xmlns="http://www.w3.org/2000/svg" xmlns:xlink="http://www.w3.org/1999/xlink" version="1.1" x="0" y="0" viewBox="9.589000701904297 5.981999397277832 46.4109992980957 53.18400192260742" enable-background="new 0 0 64 64" xml:space="preserve" height="94.93500595474396" width="82.84499728211354" class="icon-icon-0" data-fill-palette-color="accent" id="icon-0"><g fill="#454545" data-fill-palette-color="accent"><path fill="#454545" d="M38.902 15.585c-1.664 0-3.012 1.349-3.012 3.012 0 1.663 1.348 3.012 3.012 3.012 1.662 0 3.012-1.349 3.012-3.012C41.914 16.934 40.564 15.585 38.902 15.585zM27.021 15.585c-1.665 0-3.012 1.349-3.012 3.012 0 1.663 1.348 3.012 3.012 3.012 1.663 0 3.012-1.349 3.012-3.012C30.033 16.934 28.684 15.585 27.021 15.585zM21.081 46.271c0 1.664 1.349 3.012 3.012 3.012H41.83c1.662 0 3.012-1.348 3.012-3.012V33.088H21.081V46.271zM14.632 14.788c-0.587-0.591-0.88-1.363-0.88-2.131 0-0.771 0.293-1.544 0.88-2.131 0.591-0.587 1.36-0.88 2.131-0.88 0.772 0 1.544 0.293 2.131 0.88l-0.704 0.52c4.077-3.17 9.202-5.064 14.77-5.064 5.568 0 10.688 1.893 14.77 5.064l-0.701-0.518c0.588-0.588 1.357-0.881 2.131-0.881 0.77 0 1.543 0.293 2.129 0.881 0.586 0.591 0.879 1.363 0.879 2.131 0 0.772-0.291 1.544-0.879 2.131l0.703 0.518c-6.287 6.287-7.15 14.769-7.15 14.769H21.081c-0.5 0 0.497-7.123-7.15-14.769L14.632 14.788z" data-fill-palette-color="accent"></path></g><path fill="#454545" d="M16.917 35.35c0 2.023-1.64 3.664-3.664 3.664l0 0c-2.024 0-3.664-1.641-3.664-3.664l0 0c0-2.023 1.64-3.664 3.664-3.664l0 0C15.276 31.686 16.917 33.326 16.917 35.35L16.917 35.35z" data-fill-palette-color="accent"></path><path fill="#454545" d="M56 26.8c0 2.023-1.641 3.665-3.664 3.665l0 0c-2.023 0-3.664-1.642-3.664-3.665l0 0c0-2.022 1.641-3.664 3.664-3.664l0 0C54.359 23.136 56 24.777 56 26.8L56 26.8z" data-fill-palette-color="accent"></path><path fill="#454545" d="M39.512 59.166c-2.023 0-3.664-1.641-3.664-3.664l0 0c0-2.023 1.641-3.664 3.664-3.664l0 0c2.023 0 3.664 1.641 3.664 3.664l0 0C43.176 57.525 41.535 59.166 39.512 59.166L39.512 59.166z" data-fill-palette-color="accent"></path><path fill="#454545" d="M26.077 59.166c-2.024 0-3.664-1.641-3.664-3.664l0 0c0-2.023 1.64-3.664 3.664-3.664l0 0c2.024 0 3.664 1.641 3.664 3.664l0 0C29.741 57.525 28.101 59.166 26.077 59.166L26.077 59.166z" data-fill-palette-color="accent"></path></svg></g></svg></g></svg></g><defs></defs></svg><rect width="395.52" height="75.92005921122045" fill="none" stroke="none" visibility="hidden"></rect></g></svg></g></svg>