<svg xmlns="http://www.w3.org/2000/svg" version="1.1" xmlns:xlink="http://www.w3.org/1999/xlink" xmlns:svgjs="http://svgjs.dev/svgjs" width="1440" height="560" preserveAspectRatio="none" viewBox="0 0 1440 560"><g mask="url(&quot;#SvgjsMask1054&quot;)" fill="none"><rect width="1440" height="560" x="0" y="0" fill="rgba(24, 106, 59, 1)"></rect><path d="M0,485.767C91.548,462.702,188.792,468.343,269.377,419.158C351.092,369.283,393.681,281.215,455.248,207.905C542.507,104.003,701.743,33.978,706.732,-101.613C711.577,-233.307,577.484,-327.723,478.139,-414.31C388.924,-492.068,277.667,-527.458,167.767,-571.362C45.671,-620.138,-72.334,-711.044,-201.358,-685.761C-332.431,-660.077,-430.966,-549.1,-506.831,-439.171C-577.723,-336.448,-599.691,-212.26,-613.723,-88.24C-627.388,32.536,-627.905,153.601,-586.841,268.001C-543.288,389.335,-494.32,536.265,-373.459,581.114C-250.515,626.736,-127.162,517.804,0,485.767" fill="#13532e"></path><path d="M1440 858.6320000000001C1502.571 862.52 1574.076 884.188 1623.836 846.054 1673.7069999999999 807.835 1665.8 731.596 1684.172 671.51 1699.828 620.307 1719.9180000000001 572.603 1723.777 519.199 1728.507 453.736 1741.652 383.824 1709.075 326.846 1674.467 266.316 1611.578 223.06799999999998 1544.203 205.11900000000003 1477.547 187.36200000000002 1406.616 202.875 1342.896 229.296 1283.478 253.933 1231.932 295.369 1196.722 349.199 1164.126 399.033 1166.162 460.619 1153.525 518.811 1139.746 582.265 1095.9279999999999 645.891 1119.124 706.539 1142.397 767.387 1211.415 796.1800000000001 1270.284 824.0830000000001 1323.531 849.322 1381.187 854.977 1440 858.6320000000001" fill="#1d8148"></path></g><defs><mask id="SvgjsMask1054"><rect width="1440" height="560" fill="#ffffff"></rect></mask></defs></svg>